<svg width="34" height="33" viewBox="0 0 34 33" fill="none" xmlns="http://www.w3.org/2000/svg">
<path d="M16.7726 22.9178C3.20356 22.9178 0 27.2638 0 29.2728C0 31.2818 1.66887 33 3.72723 33H29.8179C31.8762 33 33.5451 31.2752 33.5451 29.2728C33.5451 27.2703 30.3416 22.9178 16.7726 22.9178Z" fill="#78B159"/>
<path d="M26.8402 25.6853C26.8402 27.1119 25.6829 27.6235 24.2563 27.6235C22.8297 27.6235 21.6724 27.1129 21.6724 25.6853L22.3181 19.8718C22.3181 18.4452 22.8287 18.5794 24.2563 18.5794C25.6829 18.5794 26.1944 18.4442 26.1944 19.8718L26.8402 25.6853Z" fill="#662113"/>
<path d="M32.4903 17.8273C28.2133 13.9743 26.481 8.45703 24.2559 8.45703C22.0307 8.45703 20.2985 13.9743 16.0224 17.8273C14.225 19.4468 15.0813 20.3832 17.545 20.196C19.7413 20.0292 21.795 19.5055 24.2559 19.5055C26.7168 19.5055 28.7714 20.0301 30.9668 20.196C33.4305 20.3832 34.2868 19.4458 32.4903 17.8273Z" fill="#5C913B"/>
<path d="M31.1013 16.3C27.8149 13.131 25.968 8.59119 24.2563 8.59119C22.5455 8.59119 20.6986 13.131 17.4121 16.3C14.8003 18.8187 20.8347 19.3834 24.2563 16.3C27.6769 19.3834 33.7123 18.8187 31.1013 16.3Z" fill="#3E721D"/>
<path d="M31.1013 13.7331C27.8149 10.7718 25.968 6.53113 24.2563 6.53113C22.5455 6.53113 20.6986 10.7718 17.4121 13.7331C14.8003 16.0859 20.8347 16.6133 24.2563 13.7331C27.6769 16.6133 33.7123 16.085 31.1013 13.7331Z" fill="#5C913B"/>
<path d="M29.5997 11.6301C27.0344 9.31828 25.592 6.00757 24.2558 6.00757C22.9205 6.00757 21.4781 9.31828 18.9119 11.6301C16.8731 13.4667 21.5834 13.8795 24.2558 11.6301C26.9273 13.8786 31.6385 13.4667 29.5997 11.6301Z" fill="#3E721D"/>
<path d="M29.5997 9.70554C27.0344 7.39372 25.592 4.08301 24.2558 4.08301C22.9205 4.08301 21.4781 7.39372 18.9119 9.70554C16.8731 11.5421 21.5834 11.9549 24.2558 9.70554C26.9273 11.9549 31.6385 11.5431 29.5997 9.70554Z" fill="#5C913B"/>
<path d="M28.5681 7.99755C26.4976 6.13207 25.3338 3.46057 24.2557 3.46057C23.1776 3.46057 22.0138 6.13207 19.9433 7.99755C18.2977 9.48005 22.0995 9.81271 24.2557 7.99755C26.4119 9.81271 30.2146 9.48005 28.5681 7.99755Z" fill="#3E721D"/>
<path d="M28.5681 6.54955C26.4976 4.68407 25.3338 2.01257 24.2557 2.01257C23.1776 2.01257 22.0138 4.68407 19.9433 6.54955C18.2977 8.03206 22.0995 8.36471 24.2557 6.54955C26.4119 8.36471 30.2146 8.03206 28.5681 6.54955Z" fill="#5C913B"/>
<path d="M27.5382 4.41756C25.9634 2.99842 25.0772 0.96521 24.2563 0.96521C23.4363 0.96521 22.5502 2.99842 20.9745 4.41756C19.7221 5.54598 22.6154 5.7985 24.2563 4.41756C25.8972 5.79943 28.7905 5.54598 27.5382 4.41756Z" fill="#3E721D"/>
<path d="M27.5382 3.45235C25.9634 2.03321 25.0772 0 24.2563 0C23.4363 0 22.5502 2.03321 20.9745 3.45235C19.7221 4.58077 22.6154 4.83329 24.2563 3.45235C25.8972 4.83329 28.7905 4.58077 27.5382 3.45235Z" fill="#5C913B"/>
<path d="M14.0712 30.2046C13.6761 30.2046 13.3239 29.9558 13.1915 29.584L8.52132 16.5079C8.41882 16.2219 8.46261 15.9228 8.63779 15.673C8.81297 15.4261 9.09811 15.2957 9.40188 15.2957H20.359C20.7327 15.2957 21.0709 15.5007 21.2181 15.8445L26.822 28.9112C26.946 29.2001 26.9161 29.5272 26.7438 29.789C26.5686 30.0518 26.276 30.2046 25.962 30.2046H14.0712Z" fill="#F4900C"/>
<path d="M3.79724 30.2044C3.48322 30.2044 3.1897 30.046 3.01731 29.7851C2.84493 29.5224 2.81604 29.1906 2.93904 28.9018L8.54666 15.8173C8.69296 15.4744 9.03214 15.2517 9.40486 15.2517C9.77852 15.2517 10.1177 15.4753 10.264 15.8173L15.8716 28.9008C15.9955 29.1906 15.9648 29.5214 15.7924 29.7842C15.62 30.046 15.3265 30.2044 15.0125 30.2044H3.79724Z" fill="#FFCC4D"/>
<path d="M9.40192 17.5656L7.53271 30.2046H11.2693L9.40192 17.5656Z" fill="#292F33"/>
<path d="M13.1637 29.1675L13.5812 30.2046H11.2694L13.1637 29.1675ZM5.63937 29.1675L5.22192 30.2046H7.53281L5.63937 29.1675Z" fill="#FFAC33"/>
<path d="M11.2694 30.2044C11.2694 30.2044 12.9681 29.7711 13.7983 29.0043L9.40204 17.5654L11.2694 30.2044ZM7.53283 30.2044C7.53283 30.2044 5.83415 29.7711 5.00391 29.0043L9.40111 17.5645L7.53283 30.2044Z" fill="#FFE8B6"/>
<path d="M12.696 4.69638C12.6792 4.69638 12.6643 4.70197 12.6475 4.70197C12.6792 4.54916 12.696 4.39168 12.696 4.22955C12.696 2.94272 11.6533 1.90002 10.3665 1.90002C9.53624 1.90002 8.81316 2.33704 8.40036 2.99117C8.14225 2.8924 7.86457 2.83276 7.57105 2.83276C6.383 2.83276 5.41392 3.72451 5.27042 4.87343C5.00765 4.76813 4.72717 4.69638 4.4262 4.69638C3.13937 4.69638 2.09668 5.73908 2.09668 7.0259C2.09668 8.31273 3.13937 9.35542 4.4262 9.35542H12.696C13.9828 9.35542 15.0255 8.31273 15.0255 7.0259C15.0255 5.73908 13.9828 4.69638 12.696 4.69638Z" fill="#E1E8ED"/>
</svg>
